<svg version="1.1" id="Layer_1" xmlns="http://www.w3.org/2000/svg" xmlns:xlink="http://www.w3.org/1999/xlink" x="0px" y="0px" viewBox="0 262 612 267.4" enable-background="new 0 262 612 267.4" xml:space="preserve" fill="#fff">
<path display="none" d="M423.5,159.2c-1.2-1.2-3.1-1.2-4.3,0L71,506.2c-1.2,1.2-1.2,3.1,0,4.3l117.5,117.5c0.6,0.6,1.2,0.6,1.8,0.6
	s1.8,0,1.8-0.6l347.6-347.6c0.6-0.6,0.6-1.2,0.6-1.8s-0.6-1.8-0.6-1.8L423.5,159.2z"/>
<path display="none" d="M592.4,145.7l-38.6-38.6c-11-11-25.7-17.1-41.6-17.1c-15.9,0-30.6,6.1-41.6,17.1l-38.6,38.6
	c-0.6,0.6-0.6,1.2-0.6,1.8c0,0.6,0.6,1.8,0.6,1.8l117.5,118.1c0.6,0.6,1.2,0.6,1.8,0.6c0.6,0,1.8-0.6,1.8-0.6l38.6-38.6
	c11-11,17.1-25.7,17.1-41.6C610.2,171.4,604,156.7,592.4,145.7z"/>
<path display="none" d="M63.6,518.4c-0.6-0.6-1.8-1.2-3.1-0.6c-1.2,0-1.8,1.2-2.4,1.8L2.4,698.3c-0.6,1.2,0,2.4,0.6,3.1
	s1.2,0.6,1.8,0.6s0.6,0,1.2,0l173.8-61.2c1.2-0.6,1.8-1.2,1.8-2.4s0-1.8-0.6-3.1L63.6,518.4z"/>
<path d="M14.1,421.1C5.5,415.6,0,404,0,393.6c0-9.8,4.3-19.6,15.3-24.5h-1.2c50.8-30,121.8-70.4,168.9-97.9v66.7
	c-18.4,11-43.5,22.6-107.1,56.9l0.6,0.6c33.7,15.3,72.2,37.9,105.9,58.1v67.3L14.1,421.1z"/>
<path d="M597.9,370.9c8.6,5.5,14.1,17.1,14.1,27.5c0,10.4-4.3,19.6-15.3,24.5h0.6c-50.8,30-121.8,70.4-168.9,97.9v-66.7
	c18.4-11,43.5-22.6,107.1-56.9l-0.6-0.6c-33.7-15.3-72.2-37.9-105.9-58.1v-67.3L597.9,370.9z"/>
<path d="M284,529.4h-42.8L327.4,262h43.5L284,529.4z"/>
<text transform="matrix(1 0 0 1 -14204.5186 -7921.0801)" font-family="'ArialMT'" font-size="73.44">&lt;/&gt;</text>
</svg>
