<?xml version="1.0" encoding="utf-8"?>
<!-- Generator: Adobe Illustrator 15.0.2, SVG Export Plug-In  -->
<!DOCTYPE svg PUBLIC "-//W3C//DTD SVG 1.1//EN" "http://www.w3.org/Graphics/SVG/1.1/DTD/svg11.dtd" [
	<!ENTITY ns_flows "http://ns.adobe.com/Flows/1.0/">
]>
<svg version="1.1"
	 xmlns="http://www.w3.org/2000/svg" xmlns:xlink="http://www.w3.org/1999/xlink" xmlns:a="http://ns.adobe.com/AdobeSVGViewerExtensions/3.0/"
	 x="0px" y="0px" width="100px" height="75px" viewBox="0 0 100 75" overflow="visible" enable-background="new 0 0 100 75"
	 xml:space="preserve">
<defs>
</defs>
<path fill="#ffffff" d="M100,75.422H0V0h100V75.422L100,75.422z M11.833,68.445h76.333L63.048,42.73l-4.756,4.787
	c-2.06,2.058-5.007,3.235-8.105,3.235c-0.017,0-0.035-0.003-0.052-0.003c-3.11-0.014-6.067-1.216-8.115-3.305l-4.835-4.895
	L11.833,68.445L11.833,68.445z M6.977,11.973v51.46L32.282,37.59L6.977,11.973L6.977,11.973z M67.964,37.78l25.06,25.651V12.551
	L67.964,37.78L67.964,37.78z M11.849,6.979l35.143,35.573c0.761,0.774,1.916,1.218,3.174,1.222c0.008,0,0.014,0,0.021,0
	c1.24,0,2.42-0.438,3.161-1.183L88.723,6.979H11.849L11.849,6.979z"/>
</svg>
